<?xml version="1.0" encoding="UTF-8" standalone="no"?>
<svg
   viewBox="0 0 9404.368 1269.774"
   version="1.1"
   id="svg1"
   width="9404.3682"
   height="1269.774"
   xmlns="http://www.w3.org/2000/svg"
   xmlns:svg="http://www.w3.org/2000/svg">
  <defs
     id="defs1" />
  <g
     id="g35"
     clip-path="none"
     transform="translate(-114.44717,-149.6354)">
    <g
       id="g34">
      <path
         style="fill:#333333;fill-opacity:1;stroke-width:0.0257128"
         d="m -51.57315,35.99798 c -1.104193,-0.06878 -1.839026,-0.199588 -2.438609,-0.434273 -0.742944,-0.290799 -1.229161,-0.764203 -1.42899,-1.391314 -0.123322,-0.387005 -0.130738,-0.515478 -0.130738,-2.263568 V 30.26658 h 2.079947 l 0.0095,1.639188 c 0.01033,1.766771 0.0092,1.751883 0.153049,2.114872 0.382299,0.96471 1.435104,1.410843 3.195727,1.354192 0.754543,-0.0242 1.270477,-0.122841 1.702543,-0.325358 0.568262,-0.266287 0.897871,-0.639621 1.078589,-1.221672 l 0.07185,-0.231416 0.0082,-1.664903 0.0082,-1.664903 h 2.110168 l -0.01104,1.690603 c -0.01033,1.583812 -0.01431,1.705237 -0.06329,1.922034 -0.110811,0.490571 -0.268135,0.792281 -0.570741,1.094557 -0.621304,0.620657 -1.622594,0.919848 -3.434598,1.026287 -0.504063,0.02958 -1.849796,0.02845 -2.339867,-0.0028 z m -39.507725,-0.470081 v -0.373858 l 2.346292,-0.0085 c 2.558455,-0.0099 2.469757,-0.0042 3.021558,-0.162623 0.632318,-0.181176 1.106973,-0.543315 1.337697,-1.020569 0.217809,-0.450548 0.236434,-0.634625 0.2367,-2.339438 l 2.1e-4,-1.356343 h 2.086117 l -0.01033,1.652053 c -0.01132,1.814774 -0.01047,1.80409 -0.177066,2.236693 -0.188189,0.488787 -0.605763,0.909347 -1.170482,1.178861 -0.417111,0.199065 -1.102614,0.371792 -1.769601,0.445878 -0.818083,0.09086 -1.080979,0.09921 -3.47766,0.110387 l -2.423431,0.01132 z m 10.057001,0.31923 c 0.0194,-0.02774 1.105571,-1.29464 2.41371,-2.815205 l 2.378434,-2.764682 1.092796,0.0014 1.092792,0.0014 2.404148,2.792704 c 1.322283,1.535963 2.408006,2.802157 2.41272,2.813733 0.0047,0.01132 -0.511252,0.02109 -1.146591,0.02109 h -1.155164 l -0.537598,-0.628328 -0.537596,-0.628328 -3.07268,-0.0011 -3.072681,-0.0011 -0.539093,0.629276 -0.539093,0.629262 h -0.614692 c -0.605915,0 -0.614187,-7.5e-4 -0.579412,-0.05052 z m 7.860369,-1.827002 c -0.01231,-0.03679 -2.49875,-2.927899 -2.519468,-2.92947 -0.01613,-0.0011 -2.484503,2.8567 -2.525043,2.923555 -0.01554,0.02562 0.49453,0.03213 2.51688,0.03213 1.712492,0 2.533531,-0.0085 2.527631,-0.02618 z m 9.24821,1.859368 c -0.421573,-0.01896 -1.246587,-0.08746 -1.500107,-0.124539 -1.645279,-0.240402 -2.537591,-0.82851 -2.804767,-1.848556 -0.160565,-0.613015 -0.120676,-1.449634 0.09342,-1.959183 0.223322,-0.531513 0.656384,-0.928609 1.303181,-1.194924 0.316809,-0.130483 0.840924,-0.264306 1.292086,-0.329986 0.840759,-0.122416 1.252627,-0.136427 4.386747,-0.148485 l 2.950544,-0.01132 v 0.646938 l -2.462001,7.5e-4 c -2.525096,7.5e-4 -3.15975,0.01628 -3.573715,0.08817 -1.074764,0.186539 -1.694486,0.671478 -1.925707,1.50688 -0.07075,0.255602 -0.06521,0.821293 0.01061,1.085938 0.244853,0.854536 0.888737,1.330247 2.04972,1.514339 0.308914,0.04897 0.47711,0.05392 2.21773,0.06552 l 1.883461,0.01274 v -1.856936 h 2.108451 v 2.571279 l -2.924833,-0.0057 c -1.608655,-0.0028 -3.005824,-0.0085 -3.104819,-0.01274 z m 19.802625,-0.06581 c 0.04036,-0.04614 1.130626,-1.31318 2.422824,-2.815559 l 2.349445,-2.731581 h 2.171775 l 2.375124,2.755158 c 1.306318,1.515357 2.396594,2.782472 2.422832,2.815828 l 0.04771,0.06071 -1.165371,-0.0071 -1.165366,-0.0071 -0.536199,-0.623545 -0.536198,-0.62353 h -6.132927 l -0.537309,0.628795 -0.537307,0.628781 -0.626204,0.0011 -0.626199,0.0011 0.07338,-0.08392 z m 7.851499,-1.781149 c 0,-0.02802 -2.527088,-2.945024 -2.545106,-2.937806 -0.02816,0.01132 -2.519117,2.910053 -2.519761,2.932301 -3.07e-4,0.0099 1.139163,0.01925 2.532154,0.01925 1.392991,0 2.532713,-0.0057 2.532713,-0.01415 z m 5.836806,-0.951549 v -2.81665 l 3.824779,0.0099 c 4.065017,0.0099 4.041611,0.0099 4.632553,0.133738 1.072887,0.225798 1.571884,0.767996 1.570282,1.706213 -7.5e-4,0.5314 -0.186069,0.901069 -0.598432,1.194755 -0.419975,0.299106 -0.887792,0.440288 -1.728194,0.521549 -0.410136,0.03963 -0.474412,0.04982 -0.447834,0.07034 0.0059,0.0042 0.710744,0.440429 1.566339,0.968588 0.855593,0.528159 1.578448,0.975679 1.606344,0.994501 0.04257,0.02873 -0.132917,0.03411 -1.092796,0.03382 l -1.143511,-3.54e-4 -1.599088,-0.98959 -1.59908,-0.98959 h -2.882913 v 1.979888 h -2.108449 z m 6.865321,0.167929 c 0.817164,-0.07076 1.079043,-0.348313 1.079043,-1.143905 0,-0.694942 -0.198145,-0.981495 -0.783346,-1.13291 -0.166233,-0.04302 -0.366205,-0.04727 -2.61628,-0.0559 l -2.436289,-0.0099 v 2.367997 l 2.230586,-2.55e-4 c 1.261961,0 2.358992,-0.01132 2.526286,-0.02576 z m -6.614423,-6.17295 c -0.08121,-0.01189 -0.254767,-0.05742 -0.38569,-0.101159 -0.555374,-0.18554 -1.044093,-0.536007 -1.95683,-1.403261 -1.220595,-1.15978 -1.418255,-1.314168 -2.163849,-1.690145 -0.477932,-0.24101 -0.712906,-0.334123 -1.085708,-0.430246 -0.887253,-0.22877 -1.791389,-0.23026 -4.185415,-0.0069 -1.805002,0.168405 -2.664539,0.179313 -3.484085,0.04421 -1.37543,-0.226732 -2.547335,-0.809305 -3.579318,-1.779341 -0.233749,-0.219719 -0.647745,-0.690325 -0.897846,-1.020621 -0.389428,-0.514297 -0.623215,-0.883805 -1.47229,-2.327009 -0.181713,-0.308866 -0.277873,-0.442253 -0.427322,-0.592773 -0.531218,-0.535014 -1.346945,-0.919949 -2.095594,-0.988895 -0.248054,-0.02284 -1.010067,0.02498 -1.650873,0.103565 -1.761488,0.216077 -2.902883,0.300139 -4.083085,0.300711 -1.516586,7.5e-4 -2.461381,-0.129719 -3.797988,-0.524448 l -0.352469,-0.104089 -0.159225,0.141834 c -0.490827,0.437212 -1.167442,0.659091 -2.144231,0.703141 -0.542178,0.02445 -1.353559,-0.05446 -1.98088,-0.19264 -0.490611,-0.108066 -1.829836,-0.544518 -4.871584,-1.587638 -1.703725,-0.584269 -1.796028,-0.612868 -1.979883,-0.613502 -0.358346,-0.0011 -0.538763,0.146123 -0.795508,0.649712 -0.53409,1.047582 -1.351397,1.688414 -2.482877,1.946772 l -0.179987,0.0411 -0.231418,-0.117548 c -0.275282,-0.139823 -0.518786,-0.331386 -0.688724,-0.541816 -0.502655,-0.622425 -0.471921,-1.413872 0.09117,-2.348014 0.72705,-1.20614 1.827743,-2.122783 2.924558,-2.435544 0.257643,-0.07346 1.34079,-0.272655 1.889891,-0.347547 0.568583,-0.07754 0.533019,-0.05682 0.343091,-0.200005 -0.873796,-0.658745 -1.898111,-1.153814 -2.695812,-1.30294 -0.357641,-0.06686 -0.82371,-0.06262 -1.118505,0.01019 -0.68565,0.169288 -1.221583,0.399777 -1.750929,0.753029 -0.376112,0.250993 -0.693838,0.576459 -1.064626,1.090562 -0.162631,0.225496 -0.333397,0.451996 -0.379479,0.50334 -0.09391,0.104641 -0.268685,0.188996 -0.445912,0.215233 -0.138295,0.02048 -0.452799,-0.02254 -0.691106,-0.09456 -0.233086,-0.07044 -0.765117,-0.334703 -0.888245,-0.441209 l -0.102249,-0.08845 7.48e-4,-0.202154 c 7.49e-4,-0.180037 0.0099,-0.217854 0.08353,-0.345596 l 0.08275,-0.143434 -0.06094,-0.203686 c -0.03351,-0.112029 -0.06895,-0.251248 -0.07876,-0.309375 l -0.01782,-0.105688 -0.17194,-0.01442 c -0.187454,-0.01572 -0.42643,-0.09442 -0.527085,-0.173596 -0.05855,-0.04607 -0.07216,-0.04721 -0.16615,-0.01401 -0.603861,0.213055 -1.282823,-0.157463 -1.67902,-0.916267 -0.08075,-0.1546634 -0.193083,-0.3232157 -0.270505,-0.405911 -0.195897,-0.2092384 -0.228317,-0.2842392 -0.227827,-0.5271144 3.52e-4,-0.1751826 0.01203,-0.2304964 0.0789,-0.3728332 0.121695,-0.2591361 0.444806,-0.6647357 0.903397,-1.1340329 0.398953,-0.4082665 0.417607,-0.4319049 0.39267,-0.4974959 -0.04181,-0.1099623 -0.0298,-0.3250625 0.02491,-0.4455456 0.112976,-0.2489196 0.537805,-0.6987264 0.901882,-0.954916 0.902332,-0.6349426 2.275657,-1.0959706 3.983903,-1.337408 1.893634,-0.2676401 4.168813,-0.216129 6.788182,0.153694 4.101765,0.5791165 9.155862,1.9542726 14.424882,3.9248335 0.818943,0.3062755 3.108087,1.2175802 5.232555,2.0830625 3.454407,1.40729 7.892498,3.330045 9.227808,3.997856 1.296909,0.648607 2.909979,1.50726 7.344096,3.909344 3.11567,1.687843 4.153514,2.23815 5.335408,2.829058 1.233033,0.616471 1.499115,0.720207 2.061602,0.803726 0.397097,0.05896 1.044617,0.05396 1.422483,-0.01104 0.603325,-0.103693 0.904006,-0.221071 1.572614,-0.613921 0.452953,-0.266143 0.645622,-0.339961 0.934384,-0.358009 0.503794,-0.03149 0.889347,0.159712 1.082922,0.537018 0.09183,0.179011 0.113387,0.495036 0.05064,0.742464 -0.09616,0.379165 -0.382258,0.851757 -0.739854,1.222163 -0.59245,0.613666 -1.373786,0.975816 -2.476445,1.147835 -0.303714,0.04738 -0.466481,0.0561 -1.04137,0.05576 -0.652106,-3.75e-4 -0.775935,-0.0093 -1.4391,-0.104387 l -0.114901,-0.01647 0.120166,0.137375 c 0.158531,0.181232 0.290814,0.448867 0.358461,0.725266 l 0.05493,0.224396 -0.09778,0.14844 c -0.293956,0.446246 -0.73809,0.927896 -0.999395,1.083803 -0.37664,0.224722 -0.887406,0.323533 -1.334125,0.258099 z m 0.755623,-0.64108 c 0.317123,-0.100665 0.317901,-0.119289 0.0051,-0.122572 -0.440345,-0.0047 -0.837797,-0.131799 -1.209395,-0.386984 -0.175954,-0.120831 -0.534206,-0.479335 -0.457917,-0.458234 0.941322,0.260339 1.640302,0.339742 2.053313,0.233254 0.302351,-0.07795 0.60796,-0.283916 0.60796,-0.409729 0,-0.115029 -0.130383,-0.328728 -0.305624,-0.500907 -0.19729,-0.19385 -0.328135,-0.283473 -0.787169,-0.539187 -0.469307,-0.261435 -0.784831,-0.488999 -1.105651,-0.79742 -0.463353,-0.445441 -1.001099,-1.023772 -1.375166,-1.478949 -0.804471,-0.978894 -0.983032,-1.162926 -1.401817,-1.44476 -0.325537,-0.21908 -0.717188,-0.375282 -1.157076,-0.461471 -0.205977,-0.04036 -0.437735,-0.04608 -2.108307,-0.05207 -1.961276,-0.0071 -2.362502,-0.02337 -2.781245,-0.113274 -0.441735,-0.09485 -0.732647,-0.236839 -1.099679,-0.536753 -0.472516,-0.386107 -0.722495,-0.751888 -1.275029,-1.86569 -0.224497,-0.452549 -0.468878,-0.914835 -0.54307,-1.02731 -0.07418,-0.112482 -0.25956,-0.333202 -0.411942,-0.490502 -0.266218,-0.274807 -0.27553,-0.288186 -0.237911,-0.341896 0.02153,-0.03074 0.04996,-0.0559 0.06316,-0.0559 0.04248,0 0.596544,0.371563 0.805568,0.540227 0.245414,0.198036 0.463726,0.448852 0.755768,0.868295 0.79498,1.141789 1.484639,1.759604 2.282056,2.044319 0.479582,0.171233 1.219662,0.270094 3.123564,0.41725 1.137673,0.08793 1.525873,0.131983 1.819819,0.206485 0.310678,0.07874 0.74938,0.290478 1.022778,0.493621 0.121058,0.08995 0.655121,0.605589 1.310022,1.26483 0.60811,0.612139 1.215572,1.205365 1.349922,1.318281 0.837139,0.703591 1.864178,1.170925 2.879835,1.310412 0.321474,0.04415 1.417207,0.04413 1.78704,-5.3e-5 0.396461,-0.04735 0.873801,-0.14552 1.096677,-0.225558 0.537977,-0.193194 1.11928,-0.608627 1.397499,-0.99874 0.12662,-0.177534 0.218648,-0.424341 0.218278,-0.58537 -3.34e-4,-0.144291 -0.101132,-0.357218 -0.203678,-0.430239 -0.20336,-0.144807 -0.418179,-0.0928 -1.210274,0.293059 -0.475801,0.231772 -0.653444,0.305257 -0.835667,0.345681 -1.003663,0.222659 -2.217925,0.08996 -3.35552,-0.366684 -0.250731,-0.10065 -1.708312,-0.854913 -6.479625,-3.353044 -1.700262,-0.89021 -2.227829,-1.168327 -3.535472,-1.863791 -2.502027,-1.330687 -6.413807,-3.067997 -11.396101,-5.061257 -3.09708,-1.239044 -4.378378,-1.728456 -7.027126,-2.6841319 -2.602163,-0.9388632 -6.594063,-2.2495808 -8.764396,-2.8777388 l -0.137758,-0.039867 0.04159,0.057288 c 0.178866,0.2463312 0.665975,0.9993552 0.843753,1.3043576 0.252322,0.4329049 0.544324,0.9763113 0.53083,0.9878623 -0.01613,0.013869 -0.121143,0.066359 -0.132606,0.066359 -0.0061,0 -0.119077,-0.1359599 -0.251218,-0.3021276 -1.003154,-1.261502 -2.470772,-2.2449714 -4.150746,-2.7814687 -1.251582,-0.3996883 -2.727511,-0.5945183 -3.937152,-0.5197227 -0.528036,0.032649 -0.820761,0.084248 -1.20977,0.2132406 -0.312928,0.1037637 -0.876285,0.3821382 -1.16577,0.5760427 -0.25479,0.1706638 -0.539969,0.3929476 -0.539969,0.4208811 0,0.010614 0.09093,0.049377 0.202045,0.085989 0.948493,0.3124954 1.873458,1.0757062 2.694872,2.2236059 0.171435,0.2395764 0.472,0.7299687 0.470656,0.7679079 -3.75e-4,0.012454 -0.02969,0.043801 -0.06503,0.069515 -0.06391,0.046532 -0.06483,0.046263 -0.185612,-0.053481 -1.262418,-1.0425788 -3.02789,-2.0199761 -3.934445,-2.1781746 -0.923431,-0.1611451 -1.518514,-0.5201983 -1.588589,-0.9584951 -0.02041,-0.1275393 -0.03862,-0.1230956 0.278362,-0.067746 0.338949,0.059184 0.802891,0.03722 1.106859,-0.052434 0.387312,-0.1142222 0.712098,-0.3033659 0.980696,-0.5711333 0.129719,-0.1293225 0.323032,-0.3880652 0.323032,-0.4323841 0,-0.00778 -0.361588,-0.014011 -0.803524,-0.013869 -1.347365,3.75e-4 -2.066261,0.071412 -2.989117,0.2951661 -1.365105,0.3309738 -2.333343,0.7741687 -2.674131,1.224035 -0.08958,0.1182696 -0.102858,0.1531165 -0.102858,0.2703177 0,0.1594935 0.06912,0.252786 0.20634,0.278533 0.159454,0.029918 0.196122,0.00112 0.320636,-0.2520303 0.211549,-0.4300659 0.571902,-0.7238875 0.966576,-0.7881228 0.186401,-0.030328 1.270577,-0.065765 1.270577,-0.041522 0,0.042357 -0.170307,0.3517634 -0.27781,0.5047157 -0.155652,0.2214644 -0.469192,0.5446645 -0.660708,0.6810702 -0.32687,0.2328136 -0.574122,0.3216581 -1.112057,0.3995912 -0.208606,0.030215 -0.44871,0.077922 -0.533562,0.1059856 -0.506696,0.1676409 -1.007132,0.6749593 -1.196072,1.2125279 -0.104655,0.2977672 -0.058,0.494897 0.175782,0.7427184 0.331921,0.351853 0.697508,0.423764 0.973065,0.1913953 0.129549,-0.1092547 0.243725,-0.3029568 0.494463,-0.8389645 0.405786,-0.8674527 0.574709,-1.1061375 0.894663,-1.2641592 0.29351,-0.1449592 0.700777,-0.1271997 1.042569,0.045457 0.186235,0.094084 0.448664,0.3681771 0.563494,0.5885489 0.278848,0.5351345 0.359978,1.2814405 0.191476,1.7613295 -0.170564,0.485753 -0.630723,1.098333 -1.287274,1.713666 -0.190619,0.17865 -0.273614,0.273303 -0.263272,0.300247 0.02883,0.07512 0.507674,0.248814 0.68593,0.248814 0.05947,0 0.123266,-0.02093 0.165748,-0.05433 0.03798,-0.02987 0.304856,-0.358187 0.593035,-0.729566 0.405492,-0.522562 0.540365,-0.679319 0.596498,-0.69329 0.254794,-0.06341 0.766095,-0.364979 0.990836,-0.584396 0.399998,-0.3905244 0.53801,-0.801976 0.481114,-1.4343656 -0.04943,-0.549472 -0.196392,-1.0045618 -0.424937,-1.3159009 l -0.09176,-0.1250061 0.111463,7.486e-4 c 0.144423,7.487e-4 0.409525,0.091989 0.597348,0.2053338 0.388927,0.234708 0.829661,0.7528882 1.134345,1.3336676 0.05475,0.1043581 0.15557,0.2510453 0.224051,0.3259739 0.12495,0.13671 0.342959,0.2685246 0.444135,0.2685246 0.09456,0 0.761076,0.1730754 1.0414,0.2704267 0.843566,0.2929484 1.425927,0.5912594 2.542257,1.3022544 0.488583,0.311181 0.598448,0.371808 0.587612,0.324263 -0.0074,-0.03217 -0.03995,-0.17419 -0.07247,-0.31561 -0.08396,-0.36495 -0.08534,-1.043727 -0.003,-1.3989395 0.0309,-0.1330304 0.06125,-0.246944 0.06746,-0.2531497 0.0062,-0.00623 0.04583,-0.00368 0.08805,0.00552 0.06991,0.015355 0.07839,0.0288 0.09483,0.1502932 0.106439,0.786364 0.672927,1.663567 1.516246,2.347905 0.635595,0.515769 1.681436,1.045449 2.667699,1.351087 l 0.27641,0.08566 3e-6,0.08357 c 5e-6,0.07611 -0.0071,0.08357 -0.07886,0.08357 -0.10907,0 -0.704745,-0.09418 -1.0006,-0.158195 -0.408464,-0.08838 -0.954855,-0.262215 -1.68467,-0.535973 -0.781675,-0.293208 -1.072366,-0.384887 -1.486965,-0.468954 -0.251319,-0.05096 -0.359532,-0.0579 -0.865756,-0.05558 -0.602902,0.0027 -1.436797,0.06926 -2.057024,0.164016 -1.535413,0.234555 -2.450911,0.871815 -3.316118,2.308298 -0.280217,0.465242 -0.361886,0.754067 -0.310292,1.097395 0.04997,0.332557 0.295199,0.726808 0.596817,0.959505 l 0.140333,0.108264 0.146081,-0.05734 c 0.08034,-0.03153 0.1461,-0.06339 0.14613,-0.07079 2.7e-5,-0.0074 -0.04168,-0.0359 -0.09267,-0.06337 -0.150894,-0.08126 -0.363596,-0.313581 -0.44689,-0.488108 -0.147445,-0.308942 -0.148602,-0.665852 -0.0034,-1.063571 0.07754,-0.212443 0.303374,-0.621388 0.343162,-0.621388 0.01189,0 0.04888,0.01779 0.08208,0.03956 l 0.06037,0.03956 -0.0472,0.151661 c -0.02596,0.08341 -0.05477,0.23628 -0.06401,0.339705 -0.05238,0.585969 0.259971,1.008903 0.859904,1.16436 l 0.160033,0.04147 0.09503,-0.07562 c 0.143067,-0.113826 0.447414,-0.437551 0.54199,-0.576492 0.109878,-0.161411 0.204251,-0.377738 0.224071,-0.513596 0.03187,-0.218597 0.320987,-0.561732 0.597402,-0.709061 0.288102,-0.153555 0.69161,-0.198874 1.088462,-0.122246 0.103778,0.02004 1.380471,0.366404 2.837101,0.769697 3.745068,1.036897 3.676399,1.019552 4.402982,1.11205 0.44368,0.05648 1.150213,0.05661 1.484149,2.55e-4 0.314944,-0.05314 0.666587,-0.168529 0.888193,-0.291447 0.21718,-0.120463 0.535259,-0.43805 0.625758,-0.624795 0.229653,-0.473895 0.184042,-1.221661 -0.124624,-2.043305 -0.246607,-0.656444 -0.748522,-1.546074 -1.251305,-2.217917 l -0.08173,-0.109212 0.05887,-0.06267 0.05887,-0.06267 0.196373,0.149092 c 1.534267,1.16485 3.707777,1.981528 6.134589,2.305021 0.424128,0.05654 1.103262,0.113529 1.35458,0.11367 l 0.221774,1.27e-4 0.01625,0.08125 c 0.0089,0.04468 0.01076,0.0868 0.004,0.09357 -0.0068,0.0068 -0.10232,0.02828 -0.21231,0.04772 -0.906238,0.160325 -2.065602,0.177144 -3.169799,0.04598 -0.725596,-0.08619 -1.714952,-0.287823 -2.442719,-0.497828 -0.190917,-0.0551 -0.350137,-0.09727 -0.353823,-0.09373 -0.0037,0.0034 0.04448,0.115284 0.107047,0.248304 0.251248,0.53424 0.37876,1.032103 0.384651,1.501786 0.0018,0.155562 -0.0055,0.343289 -0.01654,0.417175 l -0.02007,0.134332 0.225789,0.11309 c 0.665422,0.333306 1.671622,0.580509 2.861345,0.702975 0.36406,0.03748 0.673357,0.04621 1.619908,0.04571 1.369594,-7.48e-4 1.946569,-0.0411 3.342665,-0.234023 0.627266,-0.08668 1.426371,-0.110316 1.760449,-0.05206 0.126789,0.02213 0.234584,0.03613 0.239531,0.03119 0.02236,-0.02236 -0.05894,-0.249664 -0.150594,-0.420938 -0.145976,-0.272807 -0.355338,-0.540676 -0.700556,-0.896311 l -0.303942,-0.313112 0.04241,-0.06475 c 0.04976,-0.07594 0.07757,-0.06956 0.346907,0.07971 0.757884,0.42001 1.695562,1.297131 2.475928,2.316023 0.263659,0.344251 0.455498,0.63793 0.750791,1.14936 0.44884,0.777368 0.750443,1.22615 1.157773,1.722758 1.194064,1.455788 2.612383,2.298363 4.281757,2.543646 0.546,0.08023 0.912169,0.0771 2.763095,-0.02355 1.49919,-0.08153 1.851114,-0.09318 2.468427,-0.08171 1.33963,0.02491 2.337508,0.202367 3.056618,0.543613 0.542451,0.257418 1.690152,1.162933 2.634013,2.07819 0.925604,0.897555 1.391242,1.262741 1.943844,1.52451 0.445034,0.210815 0.913364,0.272292 1.25302,0.164482 z M -77.851637,5.7671425 c -0.05991,-0.014011 -0.07898,-0.034036 -0.08539,-0.089852 -0.01524,-0.132719 0.269707,-0.3294086 0.603021,-0.4162265 0.220056,-0.057316 1.120412,-0.055816 1.168351,0.00184 0.05495,0.066204 0.0018,0.1166846 -0.260529,0.2469963 -0.376241,0.1869756 -0.642866,0.2561613 -1.026898,0.2664697 -0.176775,0.00481 -0.356121,3.736e-4 -0.398549,-0.00934 z m -2.48812,5.2667795 c 0.102645,-0.06258 0.288486,-0.311397 0.390747,-0.523148 0.234562,-0.485693 0.196398,-1.1951168 -0.08432,-1.5673796 -0.223713,-0.2966747 -0.639409,-0.2991018 -0.933065,-0.00538 -0.222955,0.2229532 -0.444977,0.748743 -0.446089,1.0564139 -3.75e-4,0.1318837 0.03899,0.2623567 0.17971,0.5940317 l 0.111193,0.262106 0.161093,0.07931 c 0.337793,0.166298 0.479699,0.190096 0.620721,0.104117 z m -0.883969,-4.0264907 c 0.201383,-0.051599 0.341877,-0.1335399 0.468218,-0.2730845 l 0.100225,-0.1106982 -0.128091,-0.00821 c -0.300303,-0.019318 -0.487318,0.075658 -0.605639,0.307586 -0.07522,0.1474345 -0.07702,0.146516 0.165283,0.084446 z"
         id="path1" />
    </g>
  </g>
</svg>
