<?xml version="1.0" encoding="UTF-8"?>
<svg xmlns="http://www.w3.org/2000/svg" xmlns:xlink="http://www.w3.org/1999/xlink" width="60px" height="30px" viewBox="0 0 59 30" version="1.1">
<g id="surface3">
<path style=" stroke:none;fill-rule:evenodd;fill:rgb(0%,22.352941%,51.764709%);fill-opacity:1;" d="M 35.734375 18.554688 C 36.183594 20.882812 34.964844 22.816406 33.953125 24.695312 C 32.828125 26.441406 30.972656 27.941406 28.738281 27.714844 C 23.730469 27.640625 18.839844 26.871094 14.300781 25.5 C 14.09375 25.445312 13.886719 25.3125 13.777344 25.125 C 13.679688 24.863281 13.8125 24.617188 14 24.449219 C 18.144531 21.089844 23.078125 19.53125 27.953125 17.898438 C 29.769531 17.371094 31.703125 16.808594 33.746094 17.074219 C 34.589844 17.183594 35.433594 17.769531 35.734375 18.554688 Z M 52.816406 8.609375 C 55.140625 10.523438 57.242188 13.132812 56.527344 16.285156 C 55.367188 20.941406 50.304688 23.417969 46.273438 24.996094 C 44.078125 25.726562 41.863281 26.476562 39.464844 26.703125 C 39.316406 26.683594 39.070312 26.722656 39.035156 26.496094 L 39.089844 26.234375 C 42.503906 22.386719 45.089844 18.070312 47.359375 13.695312 C 48.410156 11.722656 49.382812 9.695312 50.285156 7.707031 C 50.414062 7.558594 50.546875 7.480469 50.695312 7.425781 C 51.539062 7.5 52.140625 8.15625 52.816406 8.609375 Z M 20.09375 3.652344 L 20.019531 3.933594 C 15.085938 9.546875 11.84375 16.058594 8.769531 22.535156 C 8.167969 23.097656 7.585938 22.347656 7.042969 22.101562 C 4.304688 20.300781 1.828125 17.390625 2.542969 13.9375 C 3.6875 9.433594 8.316406 7.03125 12.179688 5.398438 C 14.46875 4.535156 16.851562 3.839844 19.363281 3.445312 C 19.625 3.445312 19.960938 3.40625 20.09375 3.652344 Z M 44.566406 4.554688 C 44.847656 4.703125 45.183594 4.757812 45.351562 5.039062 C 45.503906 5.359375 45.203125 5.566406 45.035156 5.773438 C 41.152344 8.8125 36.707031 10.503906 32.171875 11.988281 C 29.863281 12.550781 27.539062 13.5625 24.96875 13 C 24.371094 12.851562 23.828125 12.457031 23.488281 11.875 C 22.851562 10.109375 23.714844 8.269531 24.464844 6.730469 C 25.457031 4.796875 27.21875 2.527344 29.65625 2.488281 C 34.90625 2.449219 39.859375 3.238281 44.566406 4.554688 Z M 51.054688 4.703125 C 55.027344 6.878906 59.527344 10.710938 59.058594 15.816406 C 58.515625 20.546875 54.109375 23.847656 50.171875 25.839844 C 38.675781 31.339844 22.53125 31.507812 10.664062 26.703125 C 6.648438 25.03125 2.148438 22.160156 0.460938 17.84375 C -0.832031 14.296875 0.742188 10.597656 3.386719 8.136719 C 8.917969 3.109375 15.96875 1.382812 23.226562 0.386719 C 31.101562 -0.570312 39.390625 0.273438 46.441406 2.695312 C 48.015625 3.277344 49.570312 3.914062 51.054688 4.703125 Z M 51.054688 4.703125 "/>
</g>
</svg>
