<?xml version="1.0" encoding="UTF-8"?>
<svg xmlns="http://www.w3.org/2000/svg" xmlns:xlink="http://www.w3.org/1999/xlink" width="140px" height="70px" viewBox="0 0 137 70" version="1.1">
<g id="surface3">
<path style=" stroke:none;fill-rule:evenodd;fill:rgb(0%,22.352941%,51.764709%);fill-opacity:1;" d="M 82.972656 43.296875 C 84.019531 48.730469 81.1875 53.242188 78.835938 57.621094 C 76.226562 61.695312 71.914062 65.195312 66.734375 64.671875 C 55.105469 64.496094 43.742188 62.699219 33.207031 59.5 C 32.726562 59.371094 32.25 59.0625 31.988281 58.625 C 31.769531 58.011719 32.074219 57.441406 32.507812 57.050781 C 42.132812 49.207031 53.585938 45.574219 64.90625 41.761719 C 69.128906 40.535156 73.613281 39.222656 78.359375 39.835938 C 80.316406 40.097656 82.277344 41.457031 82.972656 43.296875 Z M 122.640625 20.085938 C 128.039062 24.550781 132.914062 30.640625 131.261719 38 C 128.5625 48.863281 116.804688 54.644531 107.445312 58.320312 C 102.347656 60.03125 97.210938 61.78125 91.640625 62.308594 C 91.289062 62.265625 90.722656 62.351562 90.636719 61.824219 L 90.765625 61.214844 C 98.691406 52.234375 104.699219 42.160156 109.96875 31.957031 C 112.40625 27.355469 114.671875 22.625 116.761719 17.984375 C 117.066406 17.632812 117.371094 17.457031 117.71875 17.328125 C 119.679688 17.5 121.074219 19.035156 122.640625 20.085938 Z M 46.660156 8.523438 L 46.484375 9.179688 C 35.035156 22.273438 27.5 37.472656 20.359375 52.582031 C 18.96875 53.898438 17.617188 52.144531 16.355469 51.574219 C 9.996094 47.371094 4.25 40.582031 5.902344 32.523438 C 8.558594 22.011719 19.3125 16.40625 28.285156 12.597656 C 33.597656 10.582031 39.128906 8.960938 44.960938 8.039062 C 45.570312 8.039062 46.355469 7.953125 46.660156 8.523438 Z M 103.480469 10.625 C 104.132812 10.972656 104.917969 11.105469 105.3125 11.761719 C 105.660156 12.507812 104.960938 12.988281 104.570312 13.46875 C 95.558594 20.566406 85.238281 24.507812 74.699219 27.96875 C 69.34375 29.28125 63.945312 31.648438 57.980469 30.332031 C 56.585938 29.984375 55.324219 29.0625 54.539062 27.703125 C 53.058594 23.589844 55.0625 19.296875 56.804688 15.703125 C 59.113281 11.191406 63.207031 5.894531 68.867188 5.804688 C 81.058594 5.71875 92.550781 7.558594 103.480469 10.625 Z M 118.546875 10.972656 C 127.777344 16.054688 138.230469 24.988281 137.140625 36.902344 C 135.878906 47.941406 125.644531 55.648438 116.5 60.292969 C 89.808594 73.125 52.320312 73.519531 24.757812 62.308594 C 15.441406 58.410156 4.988281 51.707031 1.070312 41.632812 C -1.933594 33.355469 1.722656 24.726562 7.863281 18.988281 C 20.707031 7.25 37.078125 3.222656 53.929688 0.902344 C 72.21875 -1.332031 91.464844 0.636719 107.835938 6.289062 C 111.492188 7.644531 115.105469 9.136719 118.546875 10.972656 Z M 118.546875 10.972656 "/>
</g>
</svg>
