<?xml version="1.0" encoding="UTF-8"?>
<svg xmlns="http://www.w3.org/2000/svg" xmlns:xlink="http://www.w3.org/1999/xlink" width="231px" height="30px" viewBox="0 0 230 30" version="1.1">
<defs>
<clipPath id="clip1">
  <path d="M 5.582031 6 L 31 6 L 31 26 L 5.582031 26 Z M 5.582031 6 "/>
</clipPath>
<clipPath id="clip2">
  <path d="M 67 6 L 92 6 L 92 26.027344 L 67 26.027344 Z M 67 6 "/>
</clipPath>
<clipPath id="clip3">
  <path d="M 100 6 L 128 6 L 128 26.027344 L 100 26.027344 Z M 100 6 "/>
</clipPath>
<clipPath id="clip4">
  <path d="M 164 6 L 196 6 L 196 26.027344 L 164 26.027344 Z M 164 6 "/>
</clipPath>
<clipPath id="clip5">
  <path d="M 199 6 L 225.085938 6 L 225.085938 26 L 199 26 Z M 199 6 "/>
</clipPath>
</defs>
<g id="surface1">
<g clip-path="url(#clip1)" clip-rule="nonzero">
<path style=" stroke:none;fill-rule:nonzero;fill:rgb(5.098039%,13.333334%,29.019609%);fill-opacity:1;" d="M 5.582031 6.828125 L 5.582031 25.433594 L 10.6875 25.433594 L 10.6875 19.710938 L 15.261719 19.710938 C 25.074219 19.710938 30.070312 16.550781 30.070312 13.058594 C 30.070312 9.308594 24.703125 6.828125 15.707031 6.828125 L 5.582031 6.828125 M 10.6875 17.703125 L 10.6875 8.902344 L 14.707031 8.902344 C 18.855469 8.902344 24.335938 9.605469 24.335938 13.058594 C 24.335938 15.402344 22.554688 17.703125 14.039062 17.703125 Z M 10.6875 17.703125 "/>
</g>
<path style=" stroke:none;fill-rule:nonzero;fill:rgb(5.098039%,13.333334%,29.019609%);fill-opacity:1;" d="M 59.195312 25.433594 L 59.195312 23.09375 L 46.609375 23.09375 C 43.902344 23.09375 43.125 21.863281 43.125 19.785156 L 43.125 17.0625 L 57.898438 17.0625 L 57.898438 14.726562 L 43.125 14.726562 L 43.125 9.160156 L 58.566406 9.160156 L 58.566406 6.824219 L 38.015625 6.824219 L 38.015625 19.898438 C 38.015625 23.390625 39.460938 25.433594 44.164062 25.433594 Z M 59.195312 25.433594 "/>
<g clip-path="url(#clip2)" clip-rule="nonzero">
<path style=" stroke:none;fill-rule:nonzero;fill:rgb(5.098039%,13.333334%,29.019609%);fill-opacity:1;" d="M 91.878906 6.828125 L 86.769531 6.828125 L 86.769531 22.53125 C 85.363281 23.023438 83.480469 23.464844 80.734375 23.464844 C 76.8125 23.464844 72.925781 22.464844 72.925781 19.003906 L 72.925781 6.828125 L 67.816406 6.828125 L 67.816406 19.378906 C 67.816406 24.507812 72.925781 26.023438 78.550781 26.023438 C 83.921875 26.023438 88.289062 24.910156 91.878906 23.390625 Z M 91.878906 6.828125 "/>
</g>
<g clip-path="url(#clip3)" clip-rule="nonzero">
<path style=" stroke:none;fill-rule:nonzero;fill:rgb(5.098039%,13.333334%,29.019609%);fill-opacity:1;" d="M 106.078125 16.183594 C 106.078125 11.019531 110.449219 8.601562 115.777344 8.601562 C 120.144531 8.601562 123.519531 9.867188 126.703125 10.949219 L 126.703125 7.824219 C 123.332031 6.828125 120.144531 6.265625 115.777344 6.265625 C 107.230469 6.265625 100.269531 10.203125 100.269531 16.183594 C 100.269531 22.503906 107.230469 26.027344 115.777344 26.027344 C 120.039062 26.027344 124.519531 25.140625 127.257812 24.433594 L 127.257812 17.058594 L 122.222656 17.058594 L 122.222656 22.574219 C 120.375 23.203125 119.039062 23.691406 116.152344 23.691406 C 110.339844 23.691406 106.078125 20.796875 106.078125 16.183594 "/>
</g>
<path style=" stroke:none;fill-rule:nonzero;fill:rgb(5.098039%,13.333334%,29.019609%);fill-opacity:1;" d="M 157.742188 25.433594 L 157.742188 23.09375 L 145.152344 23.09375 C 142.453125 23.09375 141.675781 21.863281 141.675781 19.785156 L 141.675781 17.0625 L 156.449219 17.0625 L 156.449219 14.726562 L 141.675781 14.726562 L 141.675781 9.160156 L 157.113281 9.160156 L 157.113281 6.824219 L 136.566406 6.824219 L 136.566406 19.898438 C 136.566406 23.390625 138.007812 25.433594 142.710938 25.433594 Z M 157.742188 25.433594 "/>
<g clip-path="url(#clip4)" clip-rule="nonzero">
<path style=" stroke:none;fill-rule:nonzero;fill:rgb(5.098039%,13.333334%,29.019609%);fill-opacity:1;" d="M 179.90625 6.265625 C 171.359375 6.265625 164.359375 10.277344 164.359375 16.28125 C 164.359375 22.574219 171.359375 26.023438 179.90625 26.023438 C 188.460938 26.023438 195.417969 22.574219 195.417969 16.28125 C 195.417969 10.277344 188.460938 6.265625 179.90625 6.265625 M 179.90625 23.949219 C 174.097656 23.949219 170.171875 20.941406 170.171875 16.28125 C 170.171875 11.167969 174.542969 8.601562 179.90625 8.601562 C 185.238281 8.601562 189.605469 11.167969 189.605469 16.28125 C 189.605469 20.941406 185.683594 23.949219 179.90625 23.949219 "/>
</g>
<g clip-path="url(#clip5)" clip-rule="nonzero">
<path style=" stroke:none;fill-rule:nonzero;fill:rgb(5.098039%,13.333334%,29.019609%);fill-opacity:1;" d="M 199.609375 9.496094 L 209.792969 9.496094 L 209.792969 25.4375 L 214.902344 25.4375 L 214.902344 9.496094 L 225.082031 9.496094 L 225.082031 6.828125 L 199.609375 6.828125 Z M 199.609375 9.496094 "/>
</g>
</g>
</svg>
