<?xml version="1.0" encoding="UTF-8"?>
<svg xmlns="http://www.w3.org/2000/svg" xmlns:xlink="http://www.w3.org/1999/xlink" width="200px" height="110px" viewBox="0 0 800 110" version="1.1">
<g id="surface1">
<path style=" stroke:none;fill-rule:evenodd;fill:rgb(5.098039%,21.960784%,58.823532%);fill-opacity:1;" d="M 0 4.722656 L 0 19.328125 L 23.960938 19.328125 L 70.847656 107.261719 L 128.542969 107.261719 L 175.429688 19.183594 L 199.386719 19.03125 L 199.4375 4.722656 L 127.761719 4.722656 L 127.761719 19.082031 L 146.847656 19.082031 L 113.738281 81.59375 L 77.933594 19.300781 L 104.050781 19.183594 L 104.003906 4.722656 Z M 0 4.722656 "/>
<path style=" stroke:none;fill-rule:evenodd;fill:rgb(5.098039%,21.960784%,58.823532%);fill-opacity:1;" d="M 462.40625 4.722656 L 462.40625 19.328125 L 486.355469 19.328125 L 533.246094 107.261719 L 590.945312 107.261719 L 637.832031 19.183594 L 661.789062 19.03125 L 661.832031 4.722656 L 590.167969 4.722656 L 590.167969 19.082031 L 609.25 19.082031 L 576.140625 81.59375 L 540.328125 19.300781 L 566.453125 19.183594 L 566.40625 4.722656 Z M 462.40625 4.722656 "/>
<path style=" stroke:none;fill-rule:evenodd;fill:rgb(5.098039%,21.960784%,58.823532%);fill-opacity:1;" d="M 344.515625 4.722656 L 344.515625 19.328125 L 368.46875 19.328125 L 368.511719 91.117188 L 343.253906 91.117188 L 343.253906 107.117188 L 368.527344 107.261719 L 488.140625 107.261719 L 488.140625 59.53125 L 472.558594 59.53125 C 471.703125 84.804688 449.78125 91.152344 440.546875 91.152344 C 432.085938 91.152344 415.691406 91.117188 415.691406 91.117188 L 415.691406 19.300781 L 439.289062 19.183594 L 439.257812 4.722656 Z M 344.515625 4.722656 "/>
<path style=" stroke:none;fill-rule:evenodd;fill:rgb(5.098039%,21.960784%,58.823532%);fill-opacity:1;" d="M 262.808594 94.128906 C 248.453125 94.128906 236.820312 76.933594 236.820312 55.714844 C 236.820312 34.484375 248.453125 17.277344 262.808594 17.277344 C 277.160156 17.277344 288.792969 34.484375 288.792969 55.714844 C 288.792969 76.933594 277.160156 94.128906 262.808594 94.128906 Z M 263.863281 1.777344 C 223.144531 1.777344 190.136719 26.023438 190.136719 55.921875 C 190.136719 85.820312 223.144531 110.066406 263.863281 110.066406 C 304.582031 110.066406 337.59375 85.820312 337.59375 55.921875 C 337.59375 26.023438 304.582031 1.777344 263.863281 1.777344 Z M 263.863281 1.777344 "/>
<path style=" stroke:none;fill-rule:evenodd;fill:rgb(5.098039%,21.960784%,58.823532%);fill-opacity:1;" d="M 725.214844 93.855469 C 710.863281 93.855469 699.234375 76.378906 699.234375 54.804688 C 699.234375 33.238281 710.867188 15.753906 725.214844 15.753906 C 739.566406 15.753906 751.195312 33.238281 751.195312 54.804688 C 751.195312 76.375 739.566406 93.855469 725.214844 93.855469 Z M 726.277344 0 C 685.546875 0 652.546875 24.640625 652.546875 55.027344 C 652.546875 85.414062 685.546875 110.050781 726.277344 110.050781 C 766.988281 110.050781 800 85.414062 800 55.027344 C 800 24.640625 766.988281 0 726.277344 0 Z M 726.277344 0 "/>
</g>
</svg>
